# xmcd
#
# Track frame offsets:
#	150
#	20050
#	36957
#	56322
#
# Disc length: 968 seconds
#
# Revision: 0
# Processed by: cddbd v1.5.2PL0 Copyright (c) Steve Scherf et al.
# Submitted via: audiograbber 1.83.01
#
DISCID=2c03c604
DTITLE=Mikle - Hani On Hunajaa (Remixit) [CDS)
DYEAR=1995
DGENRE=Dance
TTITLE0=Hani On Hunajaa (Zoo Mix)
TTITLE1=Hani On Hunajaa (Single Versio)
TTITLE2=Hani On Hunajaa (P.L.Z.I. Mix)
TTITLE3=Kauniita Valheita
EXTD=TR.
EXTT0=
EXTT1=
EXTT2=
EXTT3=
PLAYORDER=
